<svg width="190" height="71" viewBox="0 0 190 71" fill="none" xmlns="http://www.w3.org/2000/svg">
<g clip-path="url(#clip0_242_3102)">
<path d="M1.03564 34.5342L6.9448 33.3664C9.32561 39.5916 14.4793 42.7034 22.4058 42.7018C26.5484 42.7018 29.668 41.9352 31.7647 40.4019C33.8614 38.8687 34.9105 36.815 34.9121 34.2411C34.9121 32.2947 34.113 30.7273 32.5146 29.5388C30.8668 28.3305 28.9766 27.4945 26.9745 27.0888L16.499 24.8341C13.7864 24.2304 11.5644 23.4987 9.83272 22.6391C8.0475 21.7236 6.53487 20.3533 5.44728 18.6661C4.23783 16.8529 3.60914 14.7138 3.64501 12.5339C3.64501 8.72058 5.2949 5.67629 8.5947 3.40103C11.8945 1.12576 16.1268 -0.00790291 21.2915 4.14633e-05C30.8148 4.14633e-05 37.0683 3.75932 40.0523 11.2779L34.1003 12.8175C33.4098 10.1386 31.7861 8.11363 29.2291 6.74243C26.7199 5.38427 23.9107 4.67714 21.0582 4.68563C18.1917 4.68563 15.6403 5.3466 13.4039 6.66854C11.1676 7.99049 10.0502 9.86218 10.0518 12.2836C10.0518 15.6679 12.8873 17.9543 18.5584 19.1428L28.3506 21.1448C37.3024 23.0212 41.7784 27.227 41.7784 33.762C41.7784 37.7136 40.0967 40.9993 36.7334 43.6194C33.3701 46.2394 28.6323 47.5503 22.52 47.5519C11.6763 47.5519 4.51479 43.2126 1.03564 34.5342Z" fill="#004E98"/>
<path d="M93.5013 46.5676H86.2161L70.2885 21.2902L58.1035 34.365V46.5676H51.4373V0.807983H58.1035V27.3438L82.1854 0.807983H89.3778L74.9596 16.8143L93.5013 46.5676Z" fill="#004E98"/>
<path d="M107.624 46.5676H100.958V0.807983H107.624V46.5676Z" fill="#004E98"/>
<path d="M151.431 41.5626V46.5676H120.48V0.807983H127.147V41.5626H151.431Z" fill="#004E98"/>
<path d="M190 41.5626V46.5676H159.05V0.807983H165.716V41.5626H190Z" fill="#004E98"/>
<path d="M10.1208 57.1994L8.57089 57.5831C8.39794 56.955 8.04244 56.3926 7.54952 55.9672C7.12649 55.591 6.58207 55.3803 6.01629 55.3737C5.74032 55.3642 5.46549 55.4138 5.21014 55.519C4.95478 55.6242 4.72477 55.7827 4.53543 55.9839C4.13932 56.4325 3.93425 57.0184 3.96404 57.6164C3.98582 58.2883 4.19712 58.9402 4.57352 59.4969C4.82589 59.9068 5.43299 60.5424 6.39483 61.4035C7.39319 62.2981 8.09076 63.1314 8.48756 63.9036C8.86354 64.6025 9.06682 65.3813 9.08038 66.1749C9.07591 66.9751 8.851 67.7586 8.43042 68.4391C8.00825 69.1539 7.40556 69.7449 6.68291 70.1527C5.97841 70.5646 5.17752 70.7825 4.36163 70.7842C3.3659 70.8017 2.39899 70.4494 1.64752 69.7952C0.884071 69.1374 0.3349 68.1705 0 66.8947L1.50943 66.3894C1.74751 67.3547 2.13082 68.0744 2.66412 68.5344C3.16627 68.9969 3.8245 69.2523 4.50686 69.2494C4.88852 69.2533 5.26685 69.178 5.618 69.0283C5.96916 68.8785 6.28554 68.6576 6.54721 68.3795C6.82755 68.0987 7.0479 67.7637 7.19483 67.3949C7.34177 67.0262 7.41223 66.6314 7.40191 66.2345C7.39949 65.5955 7.2357 64.9675 6.92575 64.4089C6.60831 63.8146 5.9774 63.0996 5.03302 62.2639C4.02514 61.3551 3.37042 60.6591 3.06885 60.1761C2.58463 59.4137 2.32624 58.5294 2.32366 57.626C2.30927 57.1207 2.39787 56.6179 2.58405 56.148C2.77024 55.6782 3.0501 55.2513 3.40657 54.8933C3.76304 54.5354 4.18864 54.2539 4.65738 54.066C5.12613 53.8782 5.6282 53.7879 6.13295 53.8008C7.01833 53.792 7.87866 54.0949 8.56375 54.6564C9.27005 55.23 9.78907 56.0776 10.1208 57.1994Z" fill="#004E98"/>
<path d="M43.6354 54.1941H48.0637C49.5398 54.1941 50.5993 54.3307 51.2421 54.604C51.8788 54.8705 52.4176 55.3275 52.7848 55.9125C53.1816 56.5509 53.3835 57.2914 53.3657 58.0431C53.3859 59.0503 53.0635 60.0344 52.4515 60.834C51.8734 61.6041 51.0667 62.1714 50.1469 62.4546C49.4739 62.666 48.2835 62.7724 46.5757 62.774H44.1259L43.0712 70.4006H41.426L43.6354 54.1941ZM45.0306 55.6241L44.2497 61.1057H46.5638C48.1208 61.1057 49.1978 60.9992 49.7945 60.7863C50.388 60.5809 50.8991 60.1888 51.2516 59.6686C51.5929 59.1742 51.7794 58.5892 51.7873 57.9883C51.8075 57.5056 51.6778 57.0285 51.4159 56.6227C51.1696 56.2573 50.8084 55.9846 50.3897 55.8481C49.9533 55.6972 49.1541 55.6225 47.9923 55.6241H45.0306Z" fill="#004E98"/>
<path d="M93.1655 54.1941L98.6532 70.4006H96.9105L95.1391 65.1573H88.2777L85.2493 70.4006H83.3613L92.7869 54.1941H93.1655ZM92.6441 57.5307L89.1705 63.489H94.6463L92.6441 57.5307Z" fill="#004E98"/>
<path d="M147.56 56.4415L146.572 57.7928C144.842 56.1785 142.87 55.3722 140.655 55.3738C139.239 55.3661 137.844 55.7266 136.608 56.42C135.394 57.0774 134.378 58.0496 133.668 59.2347C132.969 60.3833 132.601 61.7031 132.606 63.048C132.589 64.1712 132.872 65.2785 133.425 66.256C133.98 67.2054 134.8 67.9717 135.784 68.4605C136.879 69.0077 138.089 69.2816 139.313 69.2589C141.352 69.251 143.334 68.5821 144.962 67.3523L145.872 68.6393C144.839 69.3462 143.718 69.9158 142.539 70.3338C141.488 70.6463 140.397 70.7982 139.301 70.7843C137.044 70.7843 135.206 70.2242 133.787 69.104C131.898 67.6009 130.954 65.5966 130.956 63.0909C130.937 61.8555 131.18 60.6302 131.668 59.4953C132.156 58.3604 132.878 57.3416 133.787 56.5058C135.672 54.704 138.018 53.8031 140.822 53.8031C142.014 53.7869 143.199 53.9897 144.317 54.4014C145.508 54.8875 146.606 55.5779 147.56 56.4415Z" fill="#004E98"/>
<path d="M189.824 54.1941L189.586 55.8624H182.265L181.55 61.1057H188.869L188.643 62.774H181.317L180.503 68.7323H187.814L187.612 70.4006H178.627L180.838 54.1941H189.824Z" fill="#004E98"/>
</g>
<defs>
<clipPath id="clip0_242_3102">
<rect width="190" height="70.7843" fill="white"/>
</clipPath>
</defs>
</svg>
