<svg width="102" height="38" viewBox="0 0 102 38" fill="none" xmlns="http://www.w3.org/2000/svg">
<g clip-path="url(#clip0_8_15)">
<path d="M0.55603 18.5394L3.72831 17.9125C5.00643 21.2544 7.77312 22.925 12.0284 22.9241C14.2523 22.9241 15.9271 22.5125 17.0527 21.6894C18.1783 20.8663 18.7415 19.7638 18.7423 18.382C18.7423 17.3371 18.3133 16.4957 17.4553 15.8576C16.5706 15.209 15.5559 14.7602 14.4811 14.5424L8.85739 13.332C7.40119 13.0079 6.20828 12.6151 5.27867 12.1536C4.32029 11.6621 3.50824 10.9265 2.92438 10.0207C2.2751 9.04735 1.93759 7.89898 1.95685 6.72869C1.95685 4.68155 2.84258 3.04725 4.61405 1.82579C6.38551 0.604331 8.65758 -0.0042655 11.4302 -6.28939e-07C16.5427 -6.28939e-07 19.8999 2.01814 21.5018 6.05441L18.3065 6.88094C17.9358 5.44283 17.0642 4.35571 15.6915 3.6196C14.3444 2.89048 12.8363 2.51086 11.305 2.51542C9.76613 2.51542 8.39642 2.87026 7.19584 3.57993C5.99526 4.28961 5.3954 5.29441 5.39625 6.59434C5.39625 8.41118 6.91849 9.63861 9.96296 10.2766L15.2198 11.3514C20.0256 12.3587 22.4284 14.6166 22.4284 18.1248C22.4284 20.2462 21.5256 22.0101 19.7201 23.4167C17.9145 24.8233 15.3711 25.527 12.0897 25.5278C6.26835 25.5278 2.42378 23.1983 0.55603 18.5394Z" fill="white"/>
<path d="M50.1955 24.9994H46.2845L37.7339 11.4294L31.1925 18.4486V24.9994H27.6138V0.433739H31.1925V14.6793L44.1206 0.433739H47.9818L40.2416 9.0266L50.1955 24.9994Z" fill="white"/>
<path d="M57.7772 24.9994H54.1985V0.433739H57.7772V24.9994Z" fill="white"/>
<path d="M81.2946 22.3125V24.9994H64.6791V0.433739H68.2578V22.3125H81.2946Z" fill="white"/>
<path d="M102 22.3125V24.9994H85.3845V0.433739H88.9632V22.3125H102Z" fill="white"/>
<path d="M5.43327 30.7071L4.60122 30.9131C4.50837 30.5759 4.31752 30.274 4.0529 30.0456C3.8258 29.8437 3.53353 29.7305 3.2298 29.727C3.08164 29.7219 2.93411 29.7485 2.79702 29.805C2.65994 29.8614 2.53646 29.9465 2.43481 30.0545C2.22216 30.2954 2.11207 30.6099 2.12806 30.931C2.13975 31.2916 2.25319 31.6416 2.45526 31.9405C2.59074 32.1605 2.91666 32.5017 3.43302 32.964C3.96897 33.4443 4.34346 33.8916 4.55648 34.3062C4.75832 34.6814 4.86745 35.0995 4.87473 35.5255C4.87233 35.9551 4.75159 36.3757 4.52581 36.741C4.29917 37.1248 3.97562 37.442 3.58767 37.6609C3.20947 37.8821 2.77951 37.9991 2.34151 38C1.80696 38.0094 1.28788 37.8202 0.884456 37.469C0.474607 37.1159 0.179788 36.5969 0 35.9119L0.810325 35.6407C0.938137 36.1589 1.14391 36.5452 1.43021 36.7922C1.69979 37.0405 2.05316 37.1776 2.41947 37.176C2.62436 37.1781 2.82747 37.1377 3.01598 37.0573C3.2045 36.9769 3.37434 36.8583 3.51482 36.709C3.66532 36.5583 3.78361 36.3784 3.86249 36.1805C3.94137 35.9825 3.9792 35.7706 3.97366 35.5575C3.97236 35.2145 3.88443 34.8773 3.71804 34.5774C3.54762 34.2584 3.20892 33.8746 2.70194 33.4259C2.16087 32.938 1.80939 32.5644 1.64749 32.3051C1.38754 31.8958 1.24882 31.4211 1.24744 30.9361C1.23971 30.6649 1.28728 30.3949 1.38723 30.1427C1.48718 29.8905 1.63743 29.6613 1.82879 29.4691C2.02016 29.2769 2.24864 29.1258 2.50028 29.025C2.75192 28.9241 3.02145 28.8757 3.29243 28.8826C3.76774 28.8779 4.2296 29.0404 4.59738 29.3419C4.97656 29.6498 5.25518 30.1049 5.43327 30.7071Z" fill="white"/>
<path d="M23.4253 29.0937H25.8026C26.5951 29.0937 27.1638 29.167 27.5089 29.3137C27.8507 29.4568 28.14 29.7022 28.3371 30.0162C28.5501 30.3589 28.6585 30.7565 28.649 31.16C28.6598 31.7007 28.4868 32.229 28.1582 32.6582C27.8479 33.0717 27.4148 33.3762 26.921 33.5283C26.5597 33.6417 25.9207 33.6989 25.0038 33.6997H23.6886L23.1224 37.794H22.2393L23.4253 29.0937ZM24.1743 29.8613L23.7551 32.8041H24.9974C25.8333 32.8041 26.4115 32.747 26.7318 32.6327C27.0504 32.5224 27.3248 32.3119 27.514 32.0326C27.6973 31.7672 27.7974 31.4532 27.8016 31.1306C27.8125 30.8714 27.7428 30.6153 27.6022 30.3974C27.47 30.2013 27.2761 30.0549 27.0514 29.9816C26.817 29.9006 26.388 29.8605 25.7643 29.8613H24.1743Z" fill="white"/>
<path d="M50.0152 29.0937L52.9613 37.794H52.0257L51.0748 34.9792H47.3913L45.7655 37.794H44.752L49.812 29.0937H50.0152ZM49.7353 30.8849L47.8706 34.0836H50.8102L49.7353 30.8849Z" fill="white"/>
<path d="M79.2164 30.3002L78.6859 31.0257C77.7572 30.159 76.6985 29.7262 75.5098 29.727C74.7492 29.7229 74.0005 29.9164 73.337 30.2887C72.6851 30.6416 72.1399 31.1635 71.7586 31.7997C71.3833 32.4163 71.186 33.1249 71.1885 33.8469C71.1796 34.4498 71.3314 35.0443 71.6282 35.569C71.9261 36.0787 72.3664 36.4901 72.8948 36.7525C73.4824 37.0463 74.1323 37.1933 74.789 37.1811C75.8839 37.1769 76.948 36.8178 77.8219 36.1576L78.3102 36.8485C77.7556 37.228 77.1541 37.5338 76.5208 37.7582C75.9569 37.9259 75.3708 38.0075 74.7826 38C73.5709 38 72.5842 37.6993 71.8225 37.098C70.8085 36.2911 70.3019 35.215 70.3028 33.8699C70.2928 33.2067 70.423 32.5489 70.6849 31.9396C70.9468 31.3303 71.3345 30.7834 71.8225 30.3347C72.8347 29.3675 74.0937 28.8838 75.5993 28.8838C76.2391 28.8751 76.875 28.984 77.4756 29.205C78.115 29.466 78.7041 29.8366 79.2164 30.3002Z" fill="white"/>
<path d="M101.905 29.0937L101.778 29.9893H97.8474L97.4639 32.8041H101.393L101.271 33.6997H97.3387L96.9016 36.8984H100.827L100.718 37.794H95.8944L97.0818 29.0937H101.905Z" fill="white"/>
</g>
<defs>
<clipPath id="clip0_8_15">
<rect width="102" height="38" fill="white"/>
</clipPath>
</defs>
</svg>
